<?xml version="1.0" encoding="iso-8859-1"?>
<!-- Generator: Adobe Illustrator 19.0.0, SVG Export Plug-In . SVG Version: 6.00 Build 0)  -->
<svg version="1.1" id="main" xmlns="http://www.w3.org/2000/svg" xmlns:xlink="http://www.w3.org/1999/xlink" x="0px" y="0px"
	 viewBox="0 0 490 490" style="enable-background:new 0 0 490 490;" xml:space="preserve" fill="currentColor">
<g id="Business_1_Bold_19_">
	<path d="M245,490c135.317,0,245-109.683,245-245S380.317,0,245,0S0,109.684,0,245S109.683,490,245,490z M245,459.375
		c-11.515,0-22.724-1.164-33.749-2.925c-18.85-24.362-72.734-72.428-73.73-80.942c-2.113-17.961-41.482-38.618-60.928-38.771
		c-19.447-0.153-7.074-44.452-20.304-58.142c-6.232-6.447-15.067-2.818-22.387,2.389c-1.991-11.668-3.262-23.596-3.277-35.847
		c10.183-3.231,19.922-7.488,20.81-17.609c0.704-7.901,20.258-19.477,19.493-18.13c-0.766,1.348,26.215-40.594,25.572-52.568
		c-0.643-11.99-10.489-28.344,0-52.568c6.079-14.042,8.59-19.83,9.662-22.31c18.176-15.496,38.97-27.915,61.602-36.704
		c0.184,11.683,23.841,24.822,36.49,21.683c22.77-5.65,48.939,5.696,71.096,12.817c22.173,7.136,33.596-21.56,39.2-28.068
		c2.909-3.369,13.092-2.113,22.265-0.122c2.664,1.271,5.375,2.481,7.993,3.859c0.766,3.966,2.037,8.422,4.487,13.797
		c12.127,26.582,5.13,26.077-17.517,35.05c-22.647,8.973-15.068,2.71-28.374,19.156c0,0-3.813,9.279-6.676,15.895
		c-2.863,6.615-3.889,39.353-17.518,17.518c-11.362-18.176-18.605-17.456-18.605-17.456s-11.653,0.015-16.43,17.456
		c-4.778,17.426-38.067,35.402-35.05,52.568c3.017,17.165,1.439,18.85,11.622,26.261c3.69,2.68,5.589,14.409,5.895,26.307
		c0.475,18.176-4.946,8.33,17.518,17.517c22.464,9.203,19.294,21.667,35.05,35.05c15.757,13.383,26.001-1.057,35.05,35.05
		c9.05,36.107,21.82,64.68,35.05,52.568c13.23-12.112,26.353-17.824,35.05-52.568c8.698-34.744,6.737-5.007,17.517-52.568
		s25.863-48.587,25.863-48.587s10.382-2.251,14.899,12.189c2.863,9.142,6.293,21.499,11.913,29.4
		C433.772,386.671,347.747,459.375,245,459.375z"/>
</g>
<g>
</g>
<g>
</g>
<g>
</g>
<g>
</g>
<g>
</g>
<g>
</g>
<g>
</g>
<g>
</g>
<g>
</g>
<g>
</g>
<g>
</g>
<g>
</g>
<g>
</g>
<g>
</g>
<g>
</g>
</svg>
